<svg width="24" height="24" viewBox="0 0 24 24" fill="none" xmlns="http://www.w3.org/2000/svg">
<path fill-rule="evenodd" clip-rule="evenodd" d="M9.16853 5.84015C9.70643 6.03593 9.98923 6.61568 9.80019 7.13505L6.00396 17.5651C5.81493 18.0845 5.22563 18.3468 4.68773 18.151C4.14983 17.9553 3.86703 17.3755 4.05606 16.8561L7.85229 6.42608C8.04133 5.9067 8.63063 5.64437 9.16853 5.84015ZM14.2288 5.84927C14.7667 6.04505 15.0495 6.62479 14.8604 7.14417L11.0642 17.5742C10.8752 18.0936 10.2859 18.3559 9.74797 18.1602C9.21007 17.9644 8.92726 17.3846 9.1163 16.8653L12.9125 6.43519C13.1016 5.91582 13.6909 5.65349 14.2288 5.84927ZM19.9441 7.14352C20.1331 6.62414 19.8503 6.04439 19.3124 5.84862C18.7745 5.65284 18.1852 5.91517 17.9962 6.43454L14.2 16.8646C14.0109 17.384 14.2937 17.9637 14.8316 18.1595C15.3695 18.3553 15.9588 18.093 16.1479 17.5736L19.9441 7.14352Z" fill="#E11F26"/>
</svg>
