<svg width="115" height="137" viewBox="0 0 115 137" fill="none" xmlns="http://www.w3.org/2000/svg">
<g clip-path="url(#clip0)">
<rect width="115" height="137" fill="white"/>
<g clip-path="url(#clip1)">
<path fill-rule="evenodd" clip-rule="evenodd" d="M115.25 126.249H-0.25V10.7495H115.25V126.249ZM6.96875 17.9682V119.031H108.031V17.9682H6.96875ZM48.8215 49.3024C49.5674 47.2531 48.4515 44.9656 46.3291 44.1931C44.2067 43.4206 41.8816 44.4557 41.1357 46.505L26.1569 87.6587C25.411 89.708 26.5269 91.9956 28.6493 92.768C30.7717 93.5405 33.0968 92.5054 33.8427 90.4561L48.8215 49.3024ZM68.7883 49.3394C69.5342 47.2901 68.4183 45.0026 66.2959 44.2301C64.1735 43.4576 61.8484 44.4927 61.1025 46.542L46.1237 87.6958C45.3778 89.7451 46.4937 92.0326 48.6161 92.805C50.7385 93.5775 53.0637 92.5425 53.8095 90.4932L68.7883 49.3394ZM86.3527 44.2266C88.475 44.9991 89.5909 47.2866 88.845 49.3359L73.8663 90.4896C73.1204 92.5389 70.7952 93.574 68.6728 92.8015C66.5504 92.029 65.4346 89.7415 66.1805 87.6922L81.1592 46.5385C81.9051 44.4892 84.2303 43.4541 86.3527 44.2266Z" fill="#E11F26"/>
</g>
</g>
<defs>
<clipPath id="clip0">
<rect width="115" height="137" fill="white"/>
</clipPath>
<clipPath id="clip1">
<rect y="0.399994" width="115.368" height="136.8" fill="white"/>
</clipPath>
</defs>
</svg>
