<svg width="24" height="24" viewBox="0 0 24 24" fill="none" xmlns="http://www.w3.org/2000/svg">
<path fill-rule="evenodd" clip-rule="evenodd" d="M13.3431 3.02491C13.452 2.9886 13.5703 2.99208 13.6769 3.03472L17.3284 4.49532C17.6856 4.63823 17.9818 4.91133 18.1867 5.21645C18.3918 5.52181 18.5325 5.89931 18.5325 6.28426V9.35515C18.5325 9.62322 18.3152 9.84054 18.0471 9.84054C17.7791 9.84054 17.5617 9.62322 17.5617 9.35515V6.28426C17.5617 6.12915 17.5012 5.93682 17.3809 5.75772C17.2604 5.57837 17.1071 5.45237 16.9678 5.39667L14.164 4.27514V9.28639C14.164 9.55446 13.9467 9.77178 13.6786 9.77178C13.4105 9.77178 13.1932 9.55446 13.1932 9.28639V4.09816L8.3393 5.71613V17.4344L9.31391 17.1095C9.56823 17.0247 9.84311 17.1622 9.92789 17.4165C10.0127 17.6708 9.87522 17.9457 9.6209 18.0305L8.18943 18.5076C8.08052 18.5439 7.96226 18.5404 7.85567 18.4978L4.20416 17.0372C3.84688 16.8943 3.5507 16.6212 3.34577 16.3161C3.1722 16.0576 3.04477 15.7476 3.00969 15.425C3.00334 15.3937 3 15.3612 3 15.328V4.46404C3 4.07389 3.14984 3.70057 3.47423 3.47757C3.79979 3.25376 4.20227 3.24936 4.5647 3.39433L8.05112 4.7889L13.3431 3.02491ZM7.36852 5.56143L4.20416 4.29568C4.07219 4.24289 4.02491 4.27702 4.02419 4.27754C4.02253 4.27868 3.97078 4.31419 3.97078 4.46404V15.2483C3.97078 15.4034 4.03136 15.5957 4.15166 15.7748C4.27211 15.9542 4.42546 16.0802 4.5647 16.1359L7.36852 17.2574V5.56143ZM15.6765 12.0026L15.3952 12.8158C15.3453 12.9601 15.2304 13.0726 15.085 13.1193C14.9974 13.1474 14.9102 13.1798 14.8237 13.2165C14.7371 13.2532 14.6533 13.2935 14.5722 13.3369C14.4376 13.4091 14.2769 13.4136 14.1384 13.3493L13.3581 12.9867C13.2077 13.1185 13.0685 13.2606 12.941 13.4114L13.3171 14.1852C13.3839 14.3227 13.3821 14.4836 13.3122 14.6195C13.2272 14.7847 13.1574 14.9574 13.1038 15.1352C13.0597 15.2815 12.9493 15.3985 12.8057 15.451L11.9976 15.7463C11.9845 15.9434 11.986 16.1423 12.0026 16.3416L12.8158 16.6228C12.9601 16.6728 13.0726 16.7877 13.1193 16.9331C13.1474 17.0207 13.1798 17.1078 13.2165 17.1944C13.2532 17.2809 13.2935 17.3648 13.3369 17.4458C13.4091 17.5804 13.4136 17.7412 13.3493 17.8797L12.9867 18.66C13.1185 18.8104 13.2606 18.9496 13.4114 19.0771L14.1852 18.7009C14.3227 18.6341 14.4836 18.636 14.6195 18.7059C14.7847 18.7909 14.9574 18.8606 15.1352 18.9142C15.2815 18.9583 15.3985 19.0688 15.451 19.2123L15.7463 20.0204C15.9434 20.0335 16.1423 20.0321 16.3416 20.0155L16.6228 19.2023C16.6728 19.0579 16.7877 18.9455 16.9331 18.8988C17.0207 18.8707 17.1078 18.8383 17.1944 18.8016C17.2809 18.7648 17.3648 18.7246 17.4458 18.6812C17.5804 18.609 17.7412 18.6044 17.8797 18.6688L18.66 19.0314C18.8104 18.8996 18.9496 18.7575 19.0771 18.6066L18.7009 17.8328C18.6341 17.6954 18.636 17.5345 18.7059 17.3986C18.7908 17.2334 18.8606 17.0607 18.9142 16.8829C18.9583 16.7365 19.0688 16.6195 19.2123 16.5671L20.0204 16.2717C20.0335 16.0747 20.0321 15.8757 20.0155 15.6765L19.2023 15.3952C19.0579 15.3453 18.9455 15.2304 18.8988 15.085C18.8707 14.9974 18.8383 14.9102 18.8016 14.8237C18.7648 14.7371 18.7246 14.6533 18.6811 14.5722C18.609 14.4376 18.6044 14.2769 18.6688 14.1384L19.0314 13.3581C18.8996 13.2077 18.7575 13.0685 18.6066 12.941L17.8328 13.3171C17.6954 13.3839 17.5345 13.3821 17.3986 13.3122C17.2334 13.2272 17.0607 13.1574 16.8829 13.1038C16.7365 13.0597 16.6195 12.9493 16.5671 12.8057L16.2717 11.9976C16.0747 11.9845 15.8757 11.986 15.6765 12.0026ZM15.242 11.0774C15.728 11.0015 16.2156 10.9995 16.6901 11.0652C16.868 11.0899 17.0177 11.2107 17.0794 11.3794L17.3988 12.2535C17.4728 12.2808 17.5459 12.3104 17.6181 12.3421L18.4551 11.9352C18.6166 11.8567 18.8083 11.8738 18.9533 11.9796C19.3404 12.2619 19.6897 12.6021 19.9865 12.9944C20.0949 13.1376 20.1154 13.329 20.0397 13.4918L19.6474 14.3361C19.6638 14.3719 19.6797 14.408 19.6952 14.4444C19.7106 14.4808 19.7255 14.5173 19.7398 14.5539L20.6197 14.8582C20.7894 14.9169 20.9129 15.0645 20.9406 15.242C21.0165 15.728 21.0186 16.2156 20.9528 16.6901C20.9282 16.868 20.8073 17.0177 20.6387 17.0794L19.7646 17.3988C19.7372 17.4728 19.7077 17.5459 19.676 17.6181L20.0828 18.4551C20.1613 18.6166 20.1443 18.8083 20.0384 18.9533C19.7561 19.3404 19.4159 19.6897 19.0237 19.9865C18.8805 20.0949 18.6891 20.1154 18.5262 20.0397L17.6819 19.6474C17.6462 19.6638 17.6101 19.6797 17.5737 19.6952C17.5373 19.7106 17.5008 19.7255 17.4641 19.7398L17.1599 20.6197C17.1012 20.7894 16.9535 20.9129 16.7761 20.9406C16.29 21.0165 15.8024 21.0186 15.3279 20.9528C15.1501 20.9282 15.0003 20.8073 14.9387 20.6387L14.6192 19.7646C14.5453 19.7372 14.4721 19.7077 14.3999 19.676L13.563 20.0828C13.4015 20.1613 13.2098 20.1443 13.0647 20.0384C12.6777 19.7561 12.3284 19.4159 12.0315 19.0237C11.9231 18.8805 11.9027 18.6891 11.9784 18.5262L12.3707 17.6819C12.3543 17.6462 12.3384 17.6101 12.3229 17.5737C12.3074 17.5373 12.2926 17.5008 12.2783 17.4641L11.3984 17.1599C11.2286 17.1012 11.1052 16.9535 11.0774 16.7761C11.0015 16.29 10.9995 15.8024 11.0652 15.3279C11.0899 15.1501 11.2107 15.0003 11.3794 14.9387L12.2535 14.6192C12.2808 14.5453 12.3104 14.4721 12.3421 14.3999L11.9352 13.563C11.8567 13.4015 11.8738 13.2098 11.9796 13.0647C12.2619 12.6777 12.6021 12.3284 12.9944 12.0315C13.1376 11.9231 13.329 11.9027 13.4918 11.9784L14.3361 12.3707C14.3719 12.3543 14.408 12.3384 14.4444 12.3229C14.4808 12.3074 14.5173 12.2926 14.5539 12.2783L14.8582 11.3984C14.9169 11.2286 15.0645 11.1052 15.242 11.0774ZM15.3148 14.2862C16.3018 13.8672 17.4416 14.3277 17.8606 15.3148C18.2796 16.3018 17.8191 17.4416 16.832 17.8606C15.845 18.2796 14.7051 17.8191 14.2862 16.832C13.8672 15.845 14.3277 14.7051 15.3148 14.2862ZM16.967 15.6941C16.7575 15.2005 16.1876 14.9703 15.6941 15.1798C15.2005 15.3893 14.9703 15.9592 15.1798 16.4527C15.3893 16.9462 15.9592 17.1765 16.4527 16.967C16.9462 16.7575 17.1765 16.1876 16.967 15.6941Z" fill="#0A3049"/>
</svg>
