<svg width="25" height="24" viewBox="0 0 25 24" fill="none" xmlns="http://www.w3.org/2000/svg">
<path fill-rule="evenodd" clip-rule="evenodd" d="M10.738 5C7.98243 5 5.73804 7.23894 5.73804 10C5.73804 12.7556 7.97698 15 10.738 15C13.4936 15 15.738 12.7611 15.738 10C15.738 7.24439 13.4991 5 10.738 5ZM4.73804 10C4.73804 6.68593 7.43088 4 10.738 4C14.0521 4 16.738 6.69284 16.738 10C16.738 13.3141 14.0452 16 10.738 16C7.42396 16 4.73804 13.3072 4.73804 10ZM19.8845 19.8536L15.3845 15.3536C15.1892 15.1583 15.1892 14.8417 15.3845 14.6464C15.5797 14.4512 15.8963 14.4512 16.0916 14.6464L20.5916 19.1464C20.7869 19.3417 20.7869 19.6583 20.5916 19.8536C20.3963 20.0488 20.0797 20.0488 19.8845 19.8536Z" fill="#E11F26"/>
</svg>
