<svg width="24" height="24" viewBox="0 0 24 24" fill="none" xmlns="http://www.w3.org/2000/svg">
<rect x="1" y="1" width="22" height="22" rx="11" fill="#E11F26"/>
<rect x="1" y="1" width="22" height="22" rx="11" stroke="#FFFBFF" stroke-width="2"/>
<path fill-rule="evenodd" clip-rule="evenodd" d="M9.93766 7.89334C10.2963 8.02386 10.4848 8.41036 10.3588 8.75661L7.82795 15.71C7.70193 16.0562 7.30906 16.2311 6.95046 16.1006C6.59186 15.9701 6.40333 15.5836 6.52935 15.2373L9.06017 8.28396C9.1862 7.93771 9.57906 7.76282 9.93766 7.89334ZM13.3112 7.89953C13.6698 8.03005 13.8583 8.41654 13.7323 8.7628L11.2015 15.7162C11.0755 16.0624 10.6826 16.2373 10.324 16.1068C9.9654 15.9763 9.77686 15.5898 9.90289 15.2435L12.4337 8.29014C12.5597 7.94389 12.9526 7.76901 13.3112 7.89953ZM17.1215 8.76231C17.2475 8.41606 17.059 8.02956 16.7004 7.89904C16.3418 7.76852 15.9489 7.9434 15.8229 8.28966L13.292 15.243C13.166 15.5893 13.3546 15.9758 13.7132 16.1063C14.0718 16.2368 14.4646 16.0619 14.5906 15.7157L17.1215 8.76231Z" fill="#FFFBFF"/>
</svg>
