<svg width="24" height="24" viewBox="0 0 24 24" fill="none" xmlns="http://www.w3.org/2000/svg">
<path fill-rule="evenodd" clip-rule="evenodd" d="M12 8H8V12H12V8ZM11.1169 9.04383C11.1816 9.06804 11.2112 9.15214 11.183 9.23168L10.6178 10.8291C10.5896 10.9086 10.5144 10.9535 10.4497 10.9293C10.3851 10.9051 10.3555 10.821 10.3836 10.7414L10.9489 9.14403C10.977 9.06449 11.0523 9.01963 11.1169 9.04383ZM9.6834 9.2317C9.71155 9.15215 9.68196 9.06805 9.6173 9.04384C9.55265 9.01964 9.47742 9.0645 9.44927 9.14405L8.88402 10.7414C8.85587 10.821 8.88547 10.9051 8.95012 10.9293C9.01477 10.9535 9.09 10.9086 9.11815 10.8291L9.6834 9.2317ZM10.433 9.2317C10.4612 9.15215 10.4316 9.06805 10.3669 9.04384C10.3023 9.01964 10.227 9.0645 10.1989 9.14405L9.63362 10.7414C9.60547 10.821 9.63507 10.9051 9.69972 10.9293C9.76437 10.9535 9.8396 10.9086 9.86775 10.8291L10.433 9.2317Z" fill="#E11F26"/>
<path fill-rule="evenodd" clip-rule="evenodd" d="M10 5C7.24439 5 5 7.23894 5 10C5 12.7556 7.23894 15 10 15C12.7556 15 15 12.7611 15 10C15 7.24439 12.7611 5 10 5ZM4 10C4 6.68593 6.69284 4 10 4C13.3141 4 16 6.69284 16 10C16 13.3141 13.3072 16 10 16C6.68593 16 4 13.3072 4 10ZM19.1464 19.8536L14.6464 15.3536C14.4512 15.1583 14.4512 14.8417 14.6464 14.6464C14.8417 14.4512 15.1583 14.4512 15.3536 14.6464L19.8536 19.1464C20.0488 19.3417 20.0488 19.6583 19.8536 19.8536C19.6583 20.0488 19.3417 20.0488 19.1464 19.8536Z" fill="#E11F26"/>
</svg>
