<svg width="24" height="24" viewBox="0 0 24 24" fill="none" xmlns="http://www.w3.org/2000/svg">
<path fill-rule="evenodd" clip-rule="evenodd" d="M7.51045 5.49555C7.3194 5.49555 7.12836 5.49555 7.03284 5.5905C6.4597 6.06528 5.88657 6.63501 5.40896 7.2997C5.31343 7.39466 5.31343 7.58457 5.40896 7.77448L6.17313 9.29377C6.12537 9.38872 6.07761 9.50742 6.02985 9.62611C5.98209 9.74481 5.93433 9.8635 5.88657 9.95846L4.35821 10.5282C4.16716 10.6231 4.07164 10.7181 4.07164 10.908C3.97612 11.6677 3.97612 12.5223 4.07164 13.2819C4.07164 13.4718 4.16716 13.5668 4.35821 13.6617L5.98209 14.2315C5.98209 14.34 6.02865 14.447 6.07581 14.5554C6.12416 14.6665 6.17313 14.7791 6.17313 14.8961L5.40896 16.5104C5.40896 16.7003 5.40895 16.8902 5.50448 16.9852C5.98209 17.5549 6.55522 18.1246 7.22388 18.5994C7.3194 18.6944 7.51045 18.6944 7.70149 18.5994L9.22985 17.8398C9.32537 17.8872 9.44478 17.9347 9.56418 17.9822C9.68358 18.0297 9.80299 18.0772 9.89851 18.1246L10.4716 19.6439C10.5672 19.8338 10.6627 19.9288 10.8537 19.9288C11.6179 20.0237 12.4776 20.0237 13.2418 19.9288C13.4328 19.9288 13.5284 19.8338 13.6239 19.6439L14.197 18.0297C14.3625 18.0297 14.6556 17.8587 14.7702 17.7448L16.394 18.5045C16.5851 18.5045 16.7761 18.5045 16.8716 18.4095C17.4448 17.9347 18.0179 17.365 18.4955 16.7003C18.591 16.6053 18.591 16.4154 18.4955 16.2255L17.7313 14.7062C17.7791 14.6113 17.8269 14.4926 17.8746 14.3739C17.9224 14.2552 17.9701 14.1365 18.0179 14.0415L19.6418 13.4718C19.8328 13.3769 19.9284 13.2819 19.9284 13.092C20.0239 12.3323 20.0239 11.4777 19.9284 10.7181C19.9284 10.5282 19.8328 10.4332 19.6418 10.3383L18.0179 9.76855L17.7313 9.19881L18.4955 7.58457C18.4955 7.39466 18.4955 7.20475 18.4 7.10979C17.9224 6.54006 17.3493 5.97033 16.6806 5.49555C16.5851 5.40059 16.394 5.40059 16.203 5.49555L14.6746 6.25519C14.5791 6.20772 14.4597 6.16024 14.3403 6.11276C14.2209 6.06528 14.1015 6.0178 14.006 5.97033L13.4328 4.35608C13.3373 4.16617 13.2418 4.07122 13.0507 4.07122C12.2866 3.97626 11.4269 3.97626 10.6627 4.07122C10.4716 4.07122 10.3761 4.16617 10.2806 4.35608L9.70746 5.97033L9.13433 6.25519L7.51045 5.49555ZM12 15C13.6569 15 15 13.6569 15 12C15 10.3431 13.6569 9 12 9C10.3431 9 9 10.3431 9 12C9 13.6569 10.3431 15 12 15Z" fill="#E11F26"/>
</svg>
