<svg width="17" height="21" viewBox="0 0 17 21" fill="none" xmlns="http://www.w3.org/2000/svg">
<path fill-rule="evenodd" clip-rule="evenodd" d="M0 0.500076C0 0.223891 0.223891 0 0.500076 0H16.5025C16.7787 0 17.0026 0.223891 17.0026 0.500076V16.5025C17.0026 16.7787 16.7787 17.0026 16.5025 17.0026H11.8329L8.89713 20.8055C8.80188 20.9289 8.65454 21.0008 8.49867 21C8.3428 20.9992 8.19623 20.9257 8.10227 20.8014L5.23251 17.0026H0.500076C0.223891 17.0026 0 16.7787 0 16.5025V0.500076ZM6.6472 5.03393C6.90919 5.12131 7.05075 5.40453 6.96336 5.66653L4.9756 11.6265C4.88821 11.8885 4.60499 12.0301 4.34299 11.9427C4.081 11.8553 3.93944 11.5721 4.02682 11.3101L6.01459 5.3501C6.10197 5.0881 6.3852 4.94655 6.6472 5.03393ZM9.61756 5.03323C9.87993 5.11946 10.0227 5.40206 9.93651 5.66444L7.97674 11.6279C7.89052 11.8902 7.60792 12.033 7.34554 11.9468C7.08316 11.8606 6.94036 11.578 7.02658 11.3156L8.98635 5.35219C9.07258 5.08981 9.35518 4.94701 9.61756 5.03323ZM12.6073 5.033C12.8698 5.11883 13.013 5.40121 12.9272 5.66372L10.9774 11.6271C10.8916 11.8896 10.6092 12.0329 10.3467 11.9471C10.0842 11.8612 9.94097 11.5788 10.0268 11.3163L11.9766 5.35291C12.0624 5.0904 12.3448 4.94717 12.6073 5.033Z" fill="white"/>
<path fill-rule="evenodd" clip-rule="evenodd" d="M0 0.500076C0 0.223891 0.223891 0 0.500076 0H16.5025C16.7787 0 17.0026 0.223891 17.0026 0.500076V16.5025C17.0026 16.7787 16.7787 17.0026 16.5025 17.0026H11.8329L8.89713 20.8055C8.80188 20.9289 8.65454 21.0008 8.49867 21C8.3428 20.9992 8.19623 20.9257 8.10227 20.8014L5.23251 17.0026H0.500076C0.223891 17.0026 0 16.7787 0 16.5025V0.500076ZM1.00015 1.00015V16.0024H5.48146C5.63825 16.0024 5.78597 16.076 5.88048 16.2011L8.50559 19.676L11.1914 16.1969C11.2861 16.0743 11.4323 16.0024 11.5872 16.0024H16.0024V1.00015H1.00015ZM6.6472 5.03393C6.90919 5.12131 7.05075 5.40453 6.96336 5.66653L4.9756 11.6265C4.88821 11.8885 4.60499 12.0301 4.34299 11.9427C4.081 11.8553 3.93944 11.5721 4.02682 11.3101L6.01459 5.3501C6.10197 5.0881 6.3852 4.94655 6.6472 5.03393ZM9.61756 5.03323C9.87993 5.11946 10.0227 5.40206 9.93651 5.66444L7.97674 11.6279C7.89052 11.8902 7.60792 12.033 7.34554 11.9468C7.08316 11.8606 6.94036 11.578 7.02658 11.3156L8.98635 5.35219C9.07258 5.08981 9.35518 4.94701 9.61756 5.03323ZM12.6073 5.033C12.8698 5.11883 13.013 5.40121 12.9272 5.66372L10.9774 11.6271C10.8916 11.8896 10.6092 12.0329 10.3467 11.9471C10.0842 11.8612 9.94097 11.5788 10.0268 11.3163L11.9766 5.35291C12.0624 5.0904 12.3448 4.94717 12.6073 5.033Z" fill="#E11F26"/>
</svg>
