<svg width="24" height="24" viewBox="0 0 24 24" fill="none" xmlns="http://www.w3.org/2000/svg">
<g clip-path="url(#clip0_8739_14339)">
<g clip-path="url(#clip1_8739_14339)">
<rect x="8" y="8.00012" width="8" height="8" fill="black"/>
<path fill-rule="evenodd" clip-rule="evenodd" d="M11.1052 10.0535C11.2752 10.1153 11.3646 10.2985 11.3049 10.4627L10.1052 13.7586C10.0455 13.9227 9.85926 14.0056 9.68928 13.9438C9.5193 13.8819 9.42994 13.6987 9.48967 13.5346L10.6893 10.2386C10.749 10.0745 10.9353 9.99159 11.1052 10.0535ZM12.7043 10.0564C12.8743 10.1183 12.9637 10.3015 12.9039 10.4656L11.7043 13.7616C11.6445 13.9257 11.4583 14.0086 11.2883 13.9467C11.1184 13.8849 11.029 13.7017 11.0887 13.5375L12.2884 10.2416C12.3481 10.0775 12.5343 9.99455 12.7043 10.0564ZM14.5103 10.4653C14.5701 10.3012 14.4807 10.118 14.3107 10.0561C14.1407 9.99427 13.9545 10.0772 13.8948 10.2413L12.6951 13.5373C12.6354 13.7014 12.7248 13.8846 12.8948 13.9465C13.0647 14.0083 13.251 13.9254 13.3107 13.7613L14.5103 10.4653Z" fill="white"/>
</g>
<rect x="8" y="8" width="8" height="8" stroke="black"/>
<path d="M16 0L16 24" stroke="black"/>
<path d="M24 16L2.38419e-07 16" stroke="black"/>
<path d="M8 0L8 24" stroke="black"/>
<path d="M24 8L2.38419e-07 8" stroke="black"/>
</g>
<defs>
<clipPath id="clip0_8739_14339">
<rect width="24" height="24" fill="white"/>
</clipPath>
<clipPath id="clip1_8739_14339">
<rect width="8" height="8" fill="white" transform="translate(8 8.00012)"/>
</clipPath>
</defs>
</svg>
